<svg id="Logo" xmlns="http://www.w3.org/2000/svg" viewBox="0 0 1000 259.29"><defs><style>.cls-1{fill:#fff;stroke:#1d1d1b;stroke-miterlimit:10;}.cls-2{fill:#e52327;}.cls-3{fill:#4b0e11;}</style></defs><rect class="cls-1" x="11" y="10" width="978" height="239.29"/><path class="cls-2" d="M307.78,59.62h-.2v70a21.61,21.61,0,0,0,9.3-2.19C326.11,123,334,111.88,334,94.25,334,60.55,310.86,59.6,307.78,59.62Z"/><polygon class="cls-2" points="201.87 170.44 224.01 170.44 212.75 77.36 201.87 170.44"/><path class="cls-2" d="M0,0V259.29H648.22V0ZM548.55,60.44H513.1v49.19h35.45v39.75H513.1V199.3h35.45v39.15h-74.7V41.13L442.38,238.45l-46.07.14-23.55-140h0c3.8,22.58-10.48,46.18-23.11,55.48l24.94,84.42h-.11l0,0H335.76l-19-72-9.17,1.32v70.67h-.09v0h-.06l-74.89,0L227.92,205H197.21l-4.61,33.49H116.32V133.51L98.57,238.45h-21l-18-104.94V238.45H20V20.73H70.21L87.85,133.22,106,20.73h50.24V221L186.39,20.72h52.48L268.07,214l.17-193.28s39.88,0,40.12,0c36.1,0,52.5,26.33,57.12,35.41L361,20.73h40.07l18.08,132.6,18.29-132.6H548.55Zm79.72,178H555.39V20.7h39.24V199.26h33.64Z"/><path class="cls-3" d="M746.46,105.33a138,138,0,0,0-3.26-16.76,72.21,72.21,0,0,0-5.74-15.22,34,34,0,0,0-8.85-11,19.85,19.85,0,0,0-12.73-4.2l.62,147.2a22.52,22.52,0,0,0,7.92-2.64,36.14,36.14,0,0,0,7.76-6.37,42.8,42.8,0,0,0,7.76-12.42,94.38,94.38,0,0,0,5.9-20.34,166.11,166.11,0,0,0,2.33-30.28q0-4.65-.31-12.11T746.46,105.33Z"/><path class="cls-3" d="M648.22,0V259.29H1000V0ZM857.78,238.55H784.19V163.87a111.5,111.5,0,0,1-3.57,16.92q-5.11,17.09-13,28A74.71,74.71,0,0,1,751,225.82a69.54,69.54,0,0,1-35.08,12.42h-38.2l.62-217.37h37.58q14.89,0,25.77,5.59a59.48,59.48,0,0,1,18.63,14.91A80.84,80.84,0,0,1,773,63a153.08,153.08,0,0,1,7.77,25.31,207.36,207.36,0,0,1,3.41,21.49V21.18h73V59.69H824.25v49.06h33.22v40.37H822.38v49.06h35.4Zm117.07,0H934.48L917.09,173l-18.32,65.52H859.64l34.47-108.68h.31L859.64,21.18H900L917.4,86.7l18.32-65.52h39.13L940.38,129.87h-.31Z"/></svg>